# xmcd CD database file
#
# Track frame offsets:
#	150
#	8588
#	23749
#	31178
#	38498
#	45891
#	57588
#	69049
#	79088
#	90116
#
# Disc length: 1337 seconds
#
# Revision: 2
# Processed by: cddbd v1.5.2PL0 Copyright (c) Steve Scherf et al.
# Submitted via: CDex 1.70beta2
#
DISCID=5a05370a
DTITLE=Brass for You - Musik Für Blechbläser
DYEAR=2000
DGENRE=Jazz
TTITLE0=Canzon 6
TTITLE1=Ja-Da
TTITLE2=Acclamation
TTITLE3=Fantasie 1
TTITLE4=Fantasie 2
TTITLE5=Escovado
TTITLE6=Teddy Trombone
TTITLE7=Locus iste
TTITLE8=Wade in the water
TTITLE9=Yellow Submarine
EXTD=YEAR: 2000
EXTT0=
EXTT1=
EXTT2=
EXTT3=
EXTT4=
EXTT5=
EXTT6=
EXTT7=
EXTT8=
EXTT9=
PLAYORDER=
